<?xml version="1.0" encoding="utf-8"?>
<!-- Generator: Adobe Illustrator 21.0.0, SVG Export Plug-In . SVG Version: 6.00 Build 0)  -->
<svg version="1.1" xmlns="http://www.w3.org/2000/svg" xmlns:xlink="http://www.w3.org/1999/xlink" x="0px" y="0px"
	 viewBox="0 0 116.216 116.216" enable-background="new 0 0 116.216 116.216" xml:space="preserve">
<g>
	<linearGradient id="SVGID_9_" gradientUnits="userSpaceOnUse" x1="58.1078" y1="116.2156" x2="58.1078" y2="-1.818989e-12">
		<stop  offset="0" style="stop-color:#CCCCCC"/>
		<stop  offset="1" style="stop-color:#FFFFFF"/>
	</linearGradient>
	<path fill="url(#SVGID_9_)" d="M88.685,37.933l-6.825,6.825c-2.872,2.872-7.53,2.872-10.402,0l0,0
		c-2.872-2.872-2.872-7.53,0-10.402l6.825-6.825c2.872-2.872,2.872-7.53,0-10.402L63.309,2.154c-2.872-2.872-7.53-2.872-10.402,0
		L37.933,17.128c-2.872,2.872-2.872,7.53,0,10.402l6.846,6.846c2.872,2.872,2.872,7.53,0,10.402l0,0
		c-2.872,2.872-7.53,2.872-10.402,0l-6.846-6.846c-2.872-2.872-7.53-2.872-10.402,0L2.154,52.907c-2.872,2.872-2.872,7.53,0,10.402
		l14.974,14.974c2.872,2.872,7.53,2.872,10.402,0l6.825-6.825c2.872-2.872,7.53-2.872,10.402,0l0,0c2.872,2.872,2.872,7.53,0,10.402
		l-6.825,6.825c-2.872,2.872-2.872,7.53,0,10.402l14.974,14.974c2.872,2.872,7.53,2.872,10.402,0l14.974-14.974
		c2.872-2.872,2.872-7.53,0-10.402l-6.846-6.846c-2.872-2.872-2.872-7.53,0-10.402l0,0c2.872-2.872,7.53-2.872,10.402,0l6.846,6.846
		c2.872,2.872,7.53,2.872,10.402,0l14.974-14.974c2.872-2.872,2.872-7.53,0-10.402L99.087,37.933
		C96.215,35.06,91.558,35.06,88.685,37.933z M52.907,63.309L52.907,63.309c-2.873-2.873-2.873-7.53,0-10.402l0,0
		c2.872-2.872,7.53-2.872,10.402,0l0,0c2.872,2.872,2.872,7.53,0,10.402l0,0C60.436,66.181,55.779,66.181,52.907,63.309z"/>
</g>
</svg>
