<?xml version="1.0" encoding="utf-8"?>
<!-- Generator: Adobe Illustrator 21.0.0, SVG Export Plug-In . SVG Version: 6.00 Build 0)  -->
<svg version="1.1" id="图层_1" xmlns="http://www.w3.org/2000/svg" xmlns:xlink="http://www.w3.org/1999/xlink" x="0px" y="0px"
	 viewBox="0 0 521.7 126.1" style="enable-background:new 0 0 521.7 126.1;" xml:space="preserve">
<style type="text/css">
	.st0{fill:#F3CA82;}
	.st1{fill:#F3CA82;}
	.st2{fill:#F3CA82;}
	.st3{fill:#F3CA82;}
	.st4{fill:#F3CA82;}
	.st5{fill:#F3CA82;}
	.st6{fill:#F3CA82;}
	.st7{fill:#F3CA82;}
	.st8{fill:#F3CA82;}
	.st9{fill:#F3CA82;}
	.st10{fill:#F3CA82;}
	.st11{fill:#F3CA82;}
</style>
<g>
	<path class="st0" d="M115.3,58.3l-13.1-7.8l-6.4-9c-6.2-8.3-18-10.1-26.4-4l-12.6,9.1l-18.9-6c65.3-18.2,75.8-33.1,75.8-33.1
		s-29.4-19.7-65.2,5.2C10.8,39,0,54.8,0,54.8s8.7,20.6,29.6,7l24.2,17.1L77.9,56L62.9,85.3l9,6.3l-19,34.5L103.6,91L87.3,77.9
		C88.2,77.3,115.3,58.3,115.3,58.3z M18.2,55c-1.9,0-3.4-1.5-3.4-3.4s1.5-3.4,3.4-3.4c1.9,0,3.4,1.5,3.4,3.4S20.1,55,18.2,55z
		 M109.9,7.9c0,0-34-14.3-76.9,18.3C33,26.2,72.2-12.2,109.9,7.9z"/>
	<g>
		<g>
			<g>
				<path class="st1" d="M401.4,51.1c-2.3-2-5.2-3-8.6-3c-2.2,0-4.3,0.4-6.4,1.3c-2,0.9-4.4,2.3-7.1,4.5c1.9-5.6,2.9-8.3,4.8-13.9
					c1.5-4.5,2.3-6.7,3.9-11.2c-5.6,0-8.4,0-13.9,0c-7.8,22.7-15.6,45.4-23.5,68.2c5.6,0,8.4,0,13.9,0c1-2.9,1.5-4.4,2.5-7.3
					c1.4,2.8,2.8,4.7,4.3,5.8c1.5,1,3.4,1.5,5.7,1.5c5.9,0,11.5-2.6,16.8-7.9c4.3-4.3,7.4-9.5,9.6-15.7c1.7-5,2.4-9.4,2-13.3
					C405.1,56,403.7,53.1,401.4,51.1z M383.9,84c-1.8,2.8-3.7,4.8-5.6,6.1c-1,0.6-2.1,0.9-3.5,0.9c-2.9,0-4.9-2.3-5.9-6.8
					c3.3-9.7,5-14.5,8.3-24.2c4.1-4.7,7.9-7,11.4-7c1.2,0,2.1,0.3,2.7,1c0.9,1,1.3,2.8,1.2,5.4c-0.1,2.6-1.1,6.5-2.9,11.8
					C387.6,76.9,385.7,81.2,383.9,84z"/>
				<path class="st2" d="M452.1,51.1c-2.3-2-5.2-3-8.6-3c-2.2,0-4.3,0.4-6.4,1.3c-2,0.9-4.4,2.3-7.1,4.5c1.9-5.6,2.9-8.3,4.8-13.9
					c1.5-4.5,2.3-6.7,3.9-11.2c-5.6,0-8.4,0-13.9,0c-7.8,22.7-15.6,45.4-23.5,68.2c5.6,0,8.4,0,13.9,0c1-2.9,1.5-4.4,2.5-7.3
					c1.4,2.8,2.8,4.7,4.3,5.8c1.5,1,3.4,1.5,5.7,1.5c5.9,0,11.5-2.6,16.8-7.9c4.3-4.3,7.4-9.5,9.6-15.7c1.7-5,2.4-9.4,2-13.3
					C455.8,56,454.4,53.1,452.1,51.1z M434.6,84c-1.8,2.8-3.7,4.8-5.6,6.1c-1,0.6-2.1,0.9-3.5,0.9c-2.9,0-4.9-2.3-5.9-6.8
					c3.3-9.7,5-14.5,8.3-24.2c4.1-4.7,7.9-7,11.4-7c1.2,0,2.1,0.3,2.7,1c0.9,1,1.3,2.8,1.2,5.4c-0.1,2.6-1.1,6.5-2.9,11.8
					C438.3,76.9,436.4,81.2,434.6,84z"/>
				<path class="st3" d="M483.2,28.5c-2.1,0-4.2,0.7-6.2,2.2c-2,1.5-3.4,3.3-4.1,5.4c-0.7,2.1-0.6,3.9,0.4,5.4
					c1,1.5,2.5,2.2,4.7,2.2c2.1,0,4.2-0.7,6.2-2.2c2-1.5,3.4-3.3,4.1-5.4c0.7-2.1,0.6-3.9-0.4-5.4C486.9,29.3,485.3,28.5,483.2,28.5
					z"/>
				<path class="st4" d="M452.8,96.9c5.5,0,8.3,0,13.9,0c1.3-3.8,2-5.7,3.3-9.6c4.2-12.2,8.4-24.3,12.6-36.5c-5.5,0-8.3,0-13.9,0
					C463.3,66.2,458.1,81.5,452.8,96.9z"/>
				<path class="st5" d="M518.8,55.1c0.7-2,1-2.9,1.7-4.9c-4.4,0-6.6,0-11,0c2.3-6.7,3.5-10.1,5.8-16.8c-0.7,0-1,0-1.6,0
					c-0.8,0.8-1.5,1.7-2.3,2.5c-6.8,7-14.8,12.2-22.9,17.5c-0.2,0.7-0.4,1-0.6,1.7c2.4,0,3.6,0,6.1,0c-3.4,9.9-5.1,14.9-8.6,24.9
					c-1.7,4.9-2.6,8-2.6,9.1c-0.1,2,0.6,3.8,2,5.4c1.5,1.6,3.7,2.4,6.6,2.4c6,0,11.5-3.2,16.3-9.5c-0.4-0.4-0.7-0.7-1.1-1.1
					c-3,3.3-5.6,4.9-7.8,4.9c-0.5,0-1-0.2-1.5-0.7c-0.5-0.5-0.7-1.1-0.7-1.9c0-0.8,0.5-2.5,1.4-5.1c3.3-9.5,6.5-18.9,9.8-28.4
					C512.2,55.1,514.4,55.1,518.8,55.1z"/>
				<path class="st6" d="M187.8,66.8c-1.9-2.1-5.7-3.9-11.6-5.4c6.4-1.5,11.3-3.5,14.5-6c3.2-2.5,5.4-5.4,6.5-8.6
					c1.1-3.1,1.1-5.9,0.2-8.6c-0.9-2.7-2.8-4.7-5.5-6.1c-2.7-1.4-8-2-15.7-2c-9.1,0-13.7,0-22.8,0c-7.7,22.3-15.3,44.5-23,66.8
					c9.9,0,14.9,0,24.8,0c9.5,0,17.5-2,23.9-6c5.2-3.3,8.7-7.4,10.4-12.5C191,73.7,190.5,69.8,187.8,66.8z M167.6,33.8
					c4.9,0,8.2,0.4,10,1.4c1.8,1,3,2.4,3.6,4.3c0.5,1.9,0.3,4.3-0.7,7.3c-1,3-2.4,5.4-4.3,7.3c-1.8,1.9-4.1,3.4-6.7,4.4
					c-2.6,1.1-6.3,1.6-11,1.6C162.2,49.6,164,44.4,167.6,33.8z M165.6,88.2c-1,0.9-2.2,1.7-3.4,2.4c-3.2,1.7-6.4,2.6-9.7,2.6
					c0,0-0.1,0-0.1,0c-2.1,0-3.1,0-5.2,0c3.4-9.7,6.7-19.5,10.1-29.2c5.1,0,8.7,0.4,10.9,1.4c2.2,1,3.6,2.7,4.2,5.2
					c0.6,2.5,0.4,5.3-0.7,8.4C170.5,82.5,168.5,85.6,165.6,88.2z"/>
				<path class="st7" d="M220.2,28.5c-2.1,0-4.2,0.7-6.2,2.2c-2,1.5-3.4,3.3-4.1,5.4c-0.7,2.1-0.6,3.9,0.4,5.4
					c1,1.5,2.5,2.2,4.7,2.2c2.1,0,4.2-0.7,6.2-2.2c2-1.5,3.4-3.3,4.1-5.4c0.7-2.1,0.6-3.9-0.4-5.4C224,29.3,222.4,28.5,220.2,28.5z"
					/>
				<path class="st8" d="M189.8,96.9c5.5,0,8.3,0,13.9,0c1.3-3.8,2-5.7,3.3-9.6c4.2-12.2,8.4-24.3,12.6-36.5c-5.5,0-8.3,0-13.9,0
					C200.4,66.2,195.1,81.5,189.8,96.9z"/>
				<path class="st9" d="M252.3,33.3c-0.7,0-1,0-1.6,0c-0.8,0.8-1.5,1.7-2.3,2.5c-6.8,7-14.8,12.2-22.9,17.5c-0.2,0.7-0.4,1-0.6,1.7
					c2.4,0,3.6,0,6.1,0c-3.4,9.9-5.1,14.9-8.6,24.9c-1.7,4.9-2.6,8-2.6,9.1c-0.1,2,0.6,3.8,2,5.4c1.5,1.6,3.7,2.4,6.6,2.4
					c6,0,11.5-3.2,16.3-9.5c-0.4-0.4-0.7-0.7-1.1-1.1c-3,3.3-5.6,4.9-7.8,4.9c-0.5,0-1-0.2-1.5-0.7c-0.5-0.5-0.7-1.1-0.7-1.9
					c0-0.8,0.5-2.5,1.4-5.1c3.3-9.5,6.5-18.9,9.8-28.4c4.4,0,6.6,0,11,0c0.7-2,1-2.9,1.7-4.9c-4.4,0-6.6,0-11,0
					C248.8,43.4,249.9,40.1,252.3,33.3z"/>
				<path class="st10" d="M345.3,54.6c-1.2-2.1-2.5-3.6-4-4.5c-1.4-0.9-3.3-1.3-5.5-1.3c-3.4,0-7,1-10.7,3c-3.7,2-7.1,5-10.1,8.9
					c-3.1,3.9-5.5,8.4-7.2,13.3c-2.1,6.2-2.5,11.5-1.2,15.7c1.6,5.2,5.4,7.9,11.4,7.9c2.3,0,4.6-0.5,6.8-1.5c2.2-1,4.9-2.9,8.3-5.8
					c-1,2.9-1.5,4.4-2.5,7.3c5.6,0,8.4,0,13.9,0c5.6-16.3,11.2-32.6,16.8-48.9c-5.6,0-8.4,0-13.9,0
					C346.5,51.1,346.1,52.2,345.3,54.6z M334.8,84.9c-4.1,4.5-7.7,6.8-10.6,6.8c-1.3,0-2.3-0.3-2.8-0.9c-1.1-1.2-1.5-3.3-1.4-6.1
					c0.1-2.8,1.1-7.1,3.1-12.9c1.8-5.3,3.6-9.2,5.2-11.8c1.7-2.6,3.3-4.4,4.9-5.4c1-0.7,2.1-1,3.4-1c3.5,0,5.7,2.3,6.6,7
					C339.8,70.4,338.2,75.2,334.8,84.9z"/>
				<path class="st11" d="M298.9,61.5c3.7-1.4,6.9-3.4,9.7-6.1c2.6-2.5,4.4-5.1,5.5-7.9c0.1-0.2,0.2-0.4,0.2-0.6c0,0,0-0.1,0-0.1
					c0,0,0,0,0,0c0,0,0,0,0,0c0,0,0-0.1,0-0.1c0.1-0.2,0.1-0.4,0.2-0.6c0.8-2.7,0.8-5.4-0.1-7.9c-0.9-2.7-2.8-4.7-5.5-6.1
					c-2.8-1.4-8-2-15.7-2c-2.9,0-4.4,0-7.3,0c-6.2,0-9.3,0-15.6,0c-7.7,22.3-15.3,44.5-23,66.8c6.2,0,9.3,0,15.6,0
					c3.8-11.1,7.7-22.3,11.5-33.4c0.5,0,0.8,0,1.3,0c2.4,11.1,4.8,22.3,7.2,33.4c6.2,0,9.3,0,15.6,0c-2.4-11.3-4.9-22.6-7.3-33.8
					C294.3,62.7,296.9,62.2,298.9,61.5z M284.7,33.8c3.3,0,6,0.2,7.8,0.6c0.8,0.2,1.5,0.5,2.1,0.8c1.9,1,3.1,2.5,3.6,4.4
					c0.5,1.9,0.3,4.3-0.7,7.1c-1,2.9-2.4,5.3-4.2,7.1c-1.8,1.9-4.1,3.4-6.7,4.4c-0.8,0.3-1.7,0.6-2.6,0.8c-2.2,0.5-5,0.7-8.3,0.6
					C279.3,49.4,281.1,44.2,284.7,33.8z"/>
			</g>
		</g>
	</g>
</g>
</svg>
