<?xml version="1.0" encoding="utf-8"?>
<!-- Generator: Adobe Illustrator 21.0.0, SVG Export Plug-In . SVG Version: 6.00 Build 0)  -->
<svg version="1.1" xmlns="http://www.w3.org/2000/svg" xmlns:xlink="http://www.w3.org/1999/xlink" x="0px" y="0px"
	 viewBox="0 0 458.796 116.216" enable-background="new 0 0 458.796 116.216" xml:space="preserve">
<g>
	<g>
		<linearGradient id="SVGID_1_" gradientUnits="userSpaceOnUse" x1="241.5453" y1="92.9019" x2="241.5453" y2="39.8208">
			<stop  offset="0" style="stop-color:#CCCCCC"/>
			<stop  offset="1" style="stop-color:#FFFFFF"/>
		</linearGradient>
		<path fill="url(#SVGID_1_)" d="M241.545,39.821c-14.634,0-26.541,11.907-26.541,26.541s11.907,26.541,26.541,26.541
			c7.413,0,14.54-3.134,19.548-8.592c4.508-4.905,6.992-11.279,6.992-17.949c0-6.474-2.357-12.712-6.644-17.566
			C256.4,43.092,249.151,39.821,241.545,39.821z M252.886,76.774c-2.905,3.17-7.04,4.987-11.341,4.987
			c-8.49,0-15.399-6.907-15.399-15.399s6.909-15.399,15.399-15.399c4.414,0,8.621,1.899,11.544,5.208
			c2.488,2.814,3.855,6.434,3.855,10.191C256.944,70.229,255.505,73.927,252.886,76.774z"/>
		<linearGradient id="SVGID_2_" gradientUnits="userSpaceOnUse" x1="300.3857" y1="92.9019" x2="300.3857" y2="39.8208">
			<stop  offset="0" style="stop-color:#CCCCCC"/>
			<stop  offset="1" style="stop-color:#FFFFFF"/>
		</linearGradient>
		<path fill="url(#SVGID_2_)" d="M300.386,39.821c-14.634,0-26.541,11.907-26.541,26.541s11.907,26.541,26.541,26.541
			c7.409,0,14.536-3.132,19.552-8.594c4.508-4.907,6.989-11.281,6.989-17.947c0-6.479-2.361-12.719-6.644-17.564
			C315.248,43.092,307.995,39.821,300.386,39.821z M311.734,76.772c-2.912,3.17-7.047,4.989-11.348,4.989
			c-8.49,0-15.399-6.907-15.399-15.399s6.909-15.399,15.399-15.399c4.414,0,8.624,1.899,11.548,5.21
			c2.484,2.811,3.852,6.428,3.852,10.189C315.785,70.229,314.345,73.927,311.734,76.772z"/>
		<linearGradient id="SVGID_3_" gradientUnits="userSpaceOnUse" x1="344.5269" y1="92.9019" x2="344.5269" y2="24.0009">
			<stop  offset="0" style="stop-color:#CCCCCC"/>
			<stop  offset="1" style="stop-color:#FFFFFF"/>
		</linearGradient>
		<rect x="338.956" y="24.001" fill="url(#SVGID_3_)" width="11.141" height="68.901"/>
		<linearGradient id="SVGID_4_" gradientUnits="userSpaceOnUse" x1="410.0375" y1="92.9019" x2="410.0375" y2="23.3136">
			<stop  offset="0" style="stop-color:#CCCCCC"/>
			<stop  offset="1" style="stop-color:#FFFFFF"/>
		</linearGradient>
		<path fill="url(#SVGID_4_)" d="M410.037,39.821c-5.743,0-11.051,1.853-15.399,4.966V23.314h-11.141v68.901h11.141v-4.279
			c4.348,3.113,9.656,4.966,15.399,4.966c7.413,0,14.54-3.132,19.548-8.59c4.508-4.907,6.992-11.283,6.992-17.951
			c0-6.474-2.357-12.712-6.644-17.568C424.893,43.092,417.639,39.821,410.037,39.821z M421.378,76.776
			c-2.905,3.168-7.04,4.985-11.341,4.985c-8.49,0-15.399-6.907-15.399-15.399s6.909-15.399,15.399-15.399
			c4.41,0,8.621,1.899,11.544,5.208c2.488,2.814,3.855,6.434,3.855,10.191C425.437,70.229,423.997,73.927,421.378,76.776z"/>
		<g>
			<linearGradient id="SVGID_5_" gradientUnits="userSpaceOnUse" x1="453.2249" y1="92.9019" x2="453.2249" y2="41.228">
				<stop  offset="0" style="stop-color:#CCCCCC"/>
				<stop  offset="1" style="stop-color:#FFFFFF"/>
			</linearGradient>
			<rect x="447.654" y="41.228" fill="url(#SVGID_5_)" width="11.141" height="51.674"/>
			<linearGradient id="SVGID_6_" gradientUnits="userSpaceOnUse" x1="453.2249" y1="35.3182" x2="453.2249" y2="24.0353">
				<stop  offset="0" style="stop-color:#CCCCCC"/>
				<stop  offset="1" style="stop-color:#FFFFFF"/>
			</linearGradient>
			<rect x="447.654" y="24.035" fill="url(#SVGID_6_)" width="11.141" height="11.283"/>
		</g>
		<linearGradient id="SVGID_7_" gradientUnits="userSpaceOnUse" x1="176.5101" y1="92.9019" x2="176.5101" y2="28.5307">
			<stop  offset="0" style="stop-color:#CCCCCC"/>
			<stop  offset="1" style="stop-color:#FFFFFF"/>
		</linearGradient>
		<path fill="url(#SVGID_7_)" d="M177.058,39.672c6.031,0,11.783,2.595,15.78,7.119c1.562,1.768,2.745,3.79,3.616,5.939h11.695
			c-1.246-4.893-3.569-9.474-6.963-13.316c-6.111-6.916-14.906-10.884-24.129-10.884c-17.749,0-32.187,14.438-32.187,32.186
			s14.438,32.186,32.187,32.186c8.987,0,17.63-3.799,23.708-10.421c3.622-3.941,6.081-8.686,7.376-13.779h-11.684
			c-0.924,2.272-2.203,4.399-3.9,6.244c-3.975,4.33-9.625,6.815-15.501,6.815c-11.606,0-21.046-9.44-21.046-21.044
			S165.452,39.672,177.058,39.672z"/>
		<linearGradient id="SVGID_8_" gradientUnits="userSpaceOnUse" x1="366.7972" y1="92.9019" x2="366.7972" y2="83.5625">
			<stop  offset="0" style="stop-color:#CCCCCC"/>
			<stop  offset="1" style="stop-color:#FFFFFF"/>
		</linearGradient>
		<rect x="362.128" y="83.562" fill="url(#SVGID_8_)" width="9.339" height="9.339"/>
	</g>
	<linearGradient id="SVGID_9_" gradientUnits="userSpaceOnUse" x1="58.1078" y1="116.2156" x2="58.1078" y2="-1.818989e-12">
		<stop  offset="0" style="stop-color:#CCCCCC"/>
		<stop  offset="1" style="stop-color:#FFFFFF"/>
	</linearGradient>
	<path fill="url(#SVGID_9_)" d="M88.685,37.933l-6.825,6.825c-2.872,2.872-7.53,2.872-10.402,0l0,0
		c-2.872-2.872-2.872-7.53,0-10.402l6.825-6.825c2.872-2.872,2.872-7.53,0-10.402L63.309,2.154c-2.872-2.872-7.53-2.872-10.402,0
		L37.933,17.128c-2.872,2.872-2.872,7.53,0,10.402l6.846,6.846c2.872,2.872,2.872,7.53,0,10.402l0,0
		c-2.872,2.872-7.53,2.872-10.402,0l-6.846-6.846c-2.872-2.872-7.53-2.872-10.402,0L2.154,52.907c-2.872,2.872-2.872,7.53,0,10.402
		l14.974,14.974c2.872,2.872,7.53,2.872,10.402,0l6.825-6.825c2.872-2.872,7.53-2.872,10.402,0l0,0c2.872,2.872,2.872,7.53,0,10.402
		l-6.825,6.825c-2.872,2.872-2.872,7.53,0,10.402l14.974,14.974c2.872,2.872,7.53,2.872,10.402,0l14.974-14.974
		c2.872-2.872,2.872-7.53,0-10.402l-6.846-6.846c-2.872-2.872-2.872-7.53,0-10.402l0,0c2.872-2.872,7.53-2.872,10.402,0l6.846,6.846
		c2.872,2.872,7.53,2.872,10.402,0l14.974-14.974c2.872-2.872,2.872-7.53,0-10.402L99.087,37.933
		C96.215,35.06,91.558,35.06,88.685,37.933z M52.907,63.309L52.907,63.309c-2.873-2.873-2.873-7.53,0-10.402l0,0
		c2.872-2.872,7.53-2.872,10.402,0l0,0c2.872,2.872,2.872,7.53,0,10.402l0,0C60.436,66.181,55.779,66.181,52.907,63.309z"/>
</g>
</svg>
